<svg xmlns="http://www.w3.org/2000/svg" viewBox="0 0 24 24" fill="#81B5A1"><path d="M19.36 10.98c.05-.32.09-.64.09-.98s-.04-.66-.09-.98l2.11-1.65a.49.49 0 0 0 .12-.61l-2-3.46c-.12-.22-.37-.29-.59-.22l-2.49 1c-.52-.4-1.06-.73-1.69-.98l-.37-2.65A.488.488 0 0 0 14 2h-4c-.25 0-.46.18-.49.42l-.37 2.65c-.63.25-1.17.59-1.69.98l-2.49-1c-.23-.07-.47 0-.59.22l-2 3.46c-.12.22-.08.47.12.61l2.11 1.65c-.05.32-.09.65-.09.98s.02.66.09.98l-2.11 1.65a.49.49 0 0 0-.12.61l2 3.46c.12.22.37.29.59.22l2.49-1c.52.4 1.06.73 1.69.98l.37 2.65c.03.24.24.42.49.42h4c.25 0 .46-.18.49-.42l.37-2.65c.63-.25 1.17-.59 1.69-.98l2.49 1c.23.07.47 0 .59-.22l2-3.46c.12-.22.08-.47-.12-.61l-2.11-1.65zM12 15.5c-1.93 0-3.5-1.57-3.5-3.5s1.57-3.5 3.5-3.5 3.5 1.57 3.5 3.5-1.57 3.5-3.5 3.5z"/></svg>

